# xmcd
#
# Track frame offsets:
#	150
#	20744
#	47947
#	65824
#	81899
#	99251
#	117655
#	139850
#	161189
#	173806
#	193627
#	212094
#	230712
#
# Disc length: 3306 seconds
#
# Revision: 1
# Processed by: cddbd v1.5.2PL0 Copyright (c) Steve Scherf et al.
# Submitted via: EasyCDDAExtractor 12.0.7.1
#
DISCID=c40ce80d
DTITLE=Lee Ann Womack - Something Worth Leaving Behind
DYEAR=2002
DGENRE=Country
TTITLE0=Something Worth Leaving Behind
TTITLE1=I Saw Your Light
TTITLE2=When You Gonna Run to Me
TTITLE3=Talk To Me
TTITLE4=Forever Everyday
TTITLE5=Orphan Train
TTITLE6=I Need You
TTITLE7=You Should've Lied
TTITLE8=Hell Be Back
TTITLE9=Surrender
TTITLE10=Blame It On Me
TTITLE11=Closing This Memory Down
TTITLE12=Something Worth Leaving Behind
EXTD=
EXTT0=
EXTT1=
EXTT2=
EXTT3=
EXTT4=
EXTT5=
EXTT6=
EXTT7=
EXTT8=
EXTT9=
EXTT10=
EXTT11=
EXTT12=
PLAYORDER=
